<?xml version="1.0" encoding="UTF-8"?>
<svg version="1.1" xmlns="http://www.w3.org/2000/svg" width="1046" height="332">
<path d="M0 0 C345.18 0 690.36 0 1046 0 C1046 109.56 1046 219.12 1046 332 C700.82 332 355.64 332 0 332 C0 222.44 0 112.88 0 0 Z " fill="#000000" transform="translate(0,0)"/>
<path d="M0 0 C0.99 0.33 1.98 0.66 3 1 C3 66.34 3 131.68 3 199 C17.08641073 194.30452976 22.65896252 184.32182903 29.33203125 171.42578125 C34.44115018 160.54113657 38.58525923 149.15325404 42.9765625 137.96484375 C64.70845096 82.78969253 64.70845096 82.78969253 84.75 69.125 C90.76143148 67.04411987 97.24487404 66.85394332 103.125 69.5 C114.98660885 76.51570767 122.22899965 87.7604959 128.5625 99.6875 C135.15770422 111.97222899 144.52468171 123.28452165 158 128 C166.49020524 130.09616569 174.9789032 130.40830086 183.6875 130.625 C184.97333984 130.66367188 186.25917969 130.70234375 187.58398438 130.7421875 C190.72252168 130.8355269 193.86106706 130.92131076 197 131 C197.38218767 132.65614657 197.71395102 134.32457024 198 136 C195.29533182 138.70466818 187.38611028 137.23022092 183.48461914 137.24023438 C181.23479186 137.24979895 178.98593505 137.280735 176.73632812 137.3125 C160.51619898 137.43176979 147.24925341 134.04407465 135 123 C129.08085476 116.42424363 124.54337144 109.19094577 120.125 101.5625 C111.99933948 86.83770927 111.99933948 86.83770927 99 77 C94.22300623 76.32207679 90.19965859 76.43545478 85.8125 78.5 C66.31343805 95.83249951 58.08840234 123.4335512 48.92114258 147.0168457 C30.38536491 194.590343 30.38536491 194.590343 12.5546875 204.9765625 C10 206 10 206 3 207 C3 226.47 3 245.94 3 266 C1.68 265.67 0.36 265.34 -1 265 C-1 245.53 -1 226.06 -1 206 C-2.98 206 -4.96 206 -7 206 C-23.18483236 200.21573001 -31.06048973 182.80185905 -37.90673828 168.35498047 C-42.86886749 157.66612421 -47.47409855 146.81413651 -51.8828125 135.88671875 C-56.63256222 124.13520298 -61.47869548 112.51451256 -67.3125 101.25 C-67.77962402 100.34056641 -68.24674805 99.43113281 -68.72802734 98.49414062 C-72.8731955 90.70350383 -78.39056144 80.48715632 -87 77 C-92.13494732 76.08087481 -97.14982375 75.9777503 -101.6875 78.8125 C-108.4824878 84.60680076 -112.91488642 92.76169438 -117.375 100.375 C-127.14328896 117.00629016 -138.15388904 130.14367658 -157.3828125 135.65625 C-164.26841013 137.30512453 -171.01123983 137.38769656 -178.04003906 137.28125 C-180.15707681 137.24951922 -182.27337072 137.24020766 -184.390625 137.234375 C-194.67044786 137.16477607 -194.67044786 137.16477607 -197 136 C-196.125 132.125 -196.125 132.125 -195 131 C-193.16547342 130.87791242 -191.32660205 130.82020353 -189.48828125 130.7890625 C-162.22363618 130.24095167 -162.22363618 130.24095167 -139 117 C-133.07601984 110.2687212 -128.60516056 102.71967235 -124.125 95 C-117.98499634 84.52018783 -110.32165012 71.78807487 -98 68 C-91.30123929 66.85108465 -85.91978542 67.66909008 -80.18359375 71.33984375 C-66.90353939 81.43648615 -59.98541628 96.27636101 -53 111 C-52.56510254 111.9084668 -52.13020508 112.81693359 -51.68212891 113.75292969 C-46.91586246 123.87070985 -42.80829047 134.23239638 -38.68261719 144.62353516 C-35.23879136 153.28316574 -31.70084961 161.87196019 -27.75390625 170.31640625 C-27.27221481 171.35254059 -27.27221481 171.35254059 -26.78079224 172.40960693 C-24.10043063 178.04985942 -20.86274268 183.08811733 -17 188 C-16.35611328 188.88751953 -16.35611328 188.88751953 -15.69921875 189.79296875 C-11.88343237 194.82682374 -7.15446623 197.63982256 -1 199 C-1.00138269 197.4707242 -1.00138269 197.4707242 -1.00279331 195.91055393 C-1.02495998 171.14164793 -1.0414101 146.3727432 -1.05181217 121.60382938 C-1.0569758 109.62593802 -1.06401977 97.64805319 -1.07543945 85.67016602 C-1.08538424 75.23431517 -1.09185294 64.79846907 -1.09408849 54.36261362 C-1.09539595 48.83324405 -1.098484 43.30388802 -1.10573006 37.77452278 C-1.11248705 32.57654127 -1.11461762 27.37857897 -1.11310768 22.18059349 C-1.11338415 20.26690695 -1.11539117 18.35321981 -1.11920547 16.43953705 C-1.12413771 13.83870069 -1.12300004 11.23793807 -1.12025452 8.63710022 C-1.12462378 7.48585784 -1.12462378 7.48585784 -1.12908131 6.31135803 C-1.11412121 1.11412121 -1.11412121 1.11412121 0 0 Z " fill="#5A93C5" transform="translate(812,31)"/>
<path d="M0 0 C7.77125676 4.30732448 12.33955868 11.24050417 15.34375 19.3984375 C16.21529797 24.04287076 15.9375 28.83699937 15.9375 33.5625 C-0.8925 33.5625 -17.7225 33.5625 -35.0625 33.5625 C-32.85414413 43.50010141 -31.32818627 49.82712586 -23.0625 55.5625 C-16.95197601 58.42617791 -10.77195526 58.52094864 -4.265625 56.83984375 C-0.15728857 55.33872083 2.36510049 54.28208795 5.125 50.8125 C5.723125 50.07 6.32125 49.3275 6.9375 48.5625 C10.6875 48.25 10.6875 48.25 13.9375 48.5625 C12.87515837 53.52009429 10.99218786 56.12661054 7.10546875 59.171875 C-0.98774507 64.36319774 -9.59458508 65.71511573 -19.0625 64.5625 C-26.41793335 62.73646494 -33.15516871 59.1194456 -37.30859375 52.609375 C-38.3477033 50.61489367 -39.24921501 48.65931058 -40.0625 46.5625 C-40.41957031 45.68078125 -40.77664063 44.7990625 -41.14453125 43.890625 C-43.6744452 34.71834125 -43.66275287 22.2226229 -39.3828125 13.6328125 C-30.45972161 -0.3590164 -16.00248586 -6.0113686 0 0 Z " fill="#4C7EB9" transform="translate(429.0625,60.4375)"/>
<path d="M0 0 C1.94888889 1.5635404 3.39083382 3.06900058 5 5 C5.33 2.03 5.66 -0.94 6 -4 C8.31 -4 10.62 -4 13 -4 C13.11641602 5.44104894 13.20497764 14.88184663 13.25906086 24.32345963 C13.2850327 28.70873824 13.32019995 33.09352182 13.37719727 37.47851562 C13.43196513 41.71906064 13.46151361 45.95913287 13.47438622 50.20000458 C13.48354657 51.80899232 13.5014324 53.41795743 13.52865028 55.02674103 C13.7004906 65.61556964 13.24074613 75.72237388 6.11811829 84.25421143 C-0.02970625 90.41112784 -7.4692064 92.08693675 -15.9375 92.4375 C-23.41802102 92.22542337 -30.0773442 90.36299831 -35.9375 85.625 C-42 77.90909091 -42 77.90909091 -42 75 C-36.7523427 74.47523427 -36.7523427 74.47523427 -34 75 C-32.6459068 76.98600337 -31.31542376 78.98817543 -30 81 C-23.35394249 84.99489796 -16.36607883 86.25918817 -8.8359375 84.4921875 C-3.53861658 82.76609417 0.17234272 80.25735692 2.96875 75.2734375 C6.14950892 67.64550638 5.25090058 59.09386685 5 51 C4.26910156 51.94230469 3.53820312 52.88460937 2.78515625 53.85546875 C0.56727381 56.51395905 -1.29662887 58.02319087 -4.5625 59.3125 C-5.30628906 59.61800781 -6.05007813 59.92351562 -6.81640625 60.23828125 C-14.24439861 62.82944137 -22.5129293 63.41231924 -29.875 60.3125 C-37.75916891 56.19963932 -41.7839549 51.20027437 -45 43 C-47.71454501 33.29292448 -47.80837677 19.01811273 -43.26171875 9.97265625 C-39.14619151 3.5381632 -34.68198105 -1.12695757 -27.234375 -3.58203125 C-18.04338075 -5.30132563 -8.12316303 -4.88951928 0 0 Z M-34.640625 9.890625 C-38.47601889 15.84209827 -39.53169917 20.78667876 -39.4375 27.75 C-39.42920166 28.53987305 -39.42090332 29.32974609 -39.41235352 30.14355469 C-39.20289594 37.43357266 -38.24186158 44.21270673 -33.3515625 49.92578125 C-27.72143234 55.07648985 -22.31561944 56.48682034 -14.77734375 56.3046875 C-8.48402895 55.61428166 -4.46658819 52.78815615 -0.1875 48.25 C6.69522928 39.6387314 6.97302781 30.68168311 6 20 C4.49325021 14.0702105 1.71921149 9.93267624 -3 6 C-3.804375 5.236875 -4.60875 4.47375 -5.4375 3.6875 C-15.88426077 -1.26096563 -27.3617123 1.30314373 -34.640625 9.890625 Z " fill="#4C7DB9" transform="translate(290,210)"/>
<path d="M0 0 C44.42240466 0 44.42240466 0 53.41015625 8.96875 C59.28015992 16.46850899 59.92913838 24.75507316 59 34 C57.60541764 42.1184616 53.09958723 47.87136764 46.625 52.8125 C37.75137024 56.82676108 30.1741364 57.38022025 20.4375 57.1875 C16.003125 57.125625 11.56875 57.06375 7 57 C7 66.9 7 76.8 7 87 C4.69 87 2.38 87 0 87 C0 58.29 0 29.58 0 0 Z M7 7 C7 21.52 7 36.04 7 51 C10.939375 51.061875 14.87875 51.12375 18.9375 51.1875 C20.16073975 51.21481201 21.38397949 51.24212402 22.64428711 51.27026367 C31.13414108 51.33434584 38.89674966 50.6027316 45.4375 44.6875 C46.39462891 43.85798828 46.39462891 43.85798828 47.37109375 43.01171875 C51.18877472 38.29683698 51.36400959 32.84689985 51.375 27 C51.41173828 25.97132812 51.41173828 25.97132812 51.44921875 24.921875 C51.47864259 19.7825107 50.19358355 16.96121556 47 13 C41.62096402 8.03473602 37.21129289 6.74288261 29.94921875 6.8046875 C28.74354248 6.80968262 27.53786621 6.81467773 26.2956543 6.81982422 C24.77496338 6.83803223 23.25427246 6.85624023 21.6875 6.875 C16.840625 6.91625 11.99375 6.9575 7 7 Z " fill="#4C7DB8" transform="translate(168,37)"/>
<path d="M0 0 C2.31 0 4.62 0 7 0 C7.33 10.89 7.66 21.78 8 33 C10.97 29.535 10.97 29.535 14 26 C21.44451811 20.75200932 31.29678152 20.94174702 40 22 C43.25275458 23.16374211 45.5120363 24.62452402 48 27 C48.7425 27.70125 49.485 28.4025 50.25 29.125 C57.32563428 40.74925631 56.47267038 52.52789071 56.25 65.6875 C56.22990479 67.75714418 56.21165937 69.82680719 56.1953125 71.89648438 C56.15155539 76.93146007 56.0826941 81.96551942 56 87 C53.69 87 51.38 87 49 87 C48.9906543 85.74977051 48.98130859 84.49954102 48.97167969 83.21142578 C48.9315377 78.53317808 48.86571323 73.85557136 48.79248047 69.17773438 C48.76441047 67.1605661 48.74312708 65.14329069 48.72900391 63.12597656 C48.70737972 60.21103614 48.66063182 57.29736509 48.609375 54.3828125 C48.60814636 53.49385284 48.60691772 52.60489319 48.60565186 51.68899536 C48.43307593 44.16114183 46.90673019 36.83752232 41.375 31.4375 C35.58379247 27.93229544 29.64508151 28.4796916 23 29 C18.08200408 30.38370733 14.82134403 33.7036314 12.14228821 37.93849182 C8.56461776 44.39517836 7.54759429 50.90711936 7.48828125 58.19140625 C7.46135445 59.43747902 7.46135445 59.43747902 7.43388367 60.70872498 C7.38029082 63.3266004 7.34605121 65.94429904 7.3125 68.5625 C7.27928169 70.35223789 7.24478794 72.14195259 7.20898438 73.93164062 C7.12459479 78.28763167 7.05754309 82.64357497 7 87 C4.69 87 2.38 87 0 87 C0 58.29 0 29.58 0 0 Z " fill="#4B7CB7" transform="translate(382,184)"/>
<path d="M0 0 C0.85102295 -0.01482422 1.7020459 -0.02964844 2.57885742 -0.04492188 C10.23536465 0.07975518 16.68014938 2.72043918 22.48828125 7.8125 C29.98778592 16.86850564 31.7009477 27.20795056 30.9375 38.5625 C29.45341243 47.37353959 26.15051307 55.93027645 18.77734375 61.46484375 C9.95924005 66.72575063 0.14473569 68.35174401 -9.86328125 65.8671875 C-19.00770373 62.56464949 -24.01125288 57.65819751 -28.1171875 48.9296875 C-30.25287314 43.58164825 -30.31238391 38.57306415 -30.375 32.875 C-30.40400391 32.01455078 -30.43300781 31.15410156 -30.46289062 30.26757812 C-30.55300872 21.0685998 -27.35247436 13.97653579 -21 7.359375 C-14.3886306 1.22786306 -8.88176664 0.10994086 0 0 Z M-18.375 13.9375 C-22.45292249 20.28093498 -23.52966938 25.20705656 -23.375 32.625 C-23.37822266 33.40166016 -23.38144531 34.17832031 -23.38476562 34.97851562 C-23.31176451 42.81618103 -21.34411866 49.28088134 -15.64453125 54.98046875 C-10.03466213 59.89811751 -5.19380212 61.0260708 2.0859375 60.87890625 C7.86482257 60.2376875 12.21122833 57.90515574 16.75 54.375 C19.6014959 50.70879098 21.21976014 46.84842935 22.9375 42.5625 C23.4325 41.5725 23.4325 41.5725 23.9375 40.5625 C24.66785038 30.77920194 24.25124626 21.0471474 17.671875 13.32421875 C12.21895629 7.78533061 7.81356651 6.07012105 -0.0625 5.9375 C-8.26512966 6.047634 -12.76064122 8.17140179 -18.375 13.9375 Z " fill="#4C7DB8" transform="translate(483.0625,205.4375)"/>
<path d="M0 0 C6.79113605 4.22375535 11.89947344 10.28270355 14.5859375 17.83984375 C17.02747339 29.45868221 16.51024441 41.68707104 10.25 52 C5.7287212 58.18941191 0.14069646 62.15998049 -7.48828125 63.71875 C-16.68125727 64.861918 -25.30904941 64.72557701 -33.12890625 59.37109375 C-39.70013077 54.01235217 -43.50799738 47.9680105 -45.5625 39.75 C-45.624375 38.5125 -45.68625 37.275 -45.75 36 C-45.8428125 34.42025391 -45.8428125 34.42025391 -45.9375 32.80859375 C-46.2935848 22.49326222 -44.39481358 14.12143882 -37.75 6 C-27.6277359 -2.86497235 -12.6647222 -5.813636 0 0 Z M-32.4375 10.6875 C-39.31761764 19.12021056 -39.62076175 27.25668271 -38.75 38 C-37.17571522 45.40370161 -33.04757125 51.80161916 -26.75 56 C-20.2262476 59.03430344 -12.92767345 58.81587352 -6.0625 57 C0.45795146 54.5418475 3.87284814 49.44333395 7.1875 43.5625 C9.70171298 35.64272913 9.78136467 24.46704338 6.5 16.75 C3.36763357 11.05678663 -0.0829323 6.52049264 -6.4765625 4.4375 C-9.54447807 3.84711075 -12.50184798 3.79029874 -15.625 3.75 C-16.81867188 3.72421875 -18.01234375 3.6984375 -19.2421875 3.671875 C-24.91141453 4.20218131 -28.73329878 6.43069067 -32.4375 10.6875 Z " fill="#4C7EB9" transform="translate(142.75,208)"/>
<path d="M0 0 C6.93868814 4.2867288 11.72627203 10.28860899 14.25 18 C16.26652672 30.04154528 16.65207825 41.23802542 10.25 52 C5.35468089 58.70525099 -1.667106 62.40134998 -9.75 64 C-19.19685544 64.78083765 -27.35637654 64.22516084 -35.00390625 58.234375 C-40.89900255 52.71925729 -45.21566059 46.15706399 -45.92700195 37.96044922 C-46.26769632 25.97506555 -46.28917385 16.50778895 -38.625 6.6875 C-28.91975527 -3.32230261 -12.8302341 -5.78541231 0 0 Z M-32.75 10 C-39.09861917 19.03871204 -39.70469903 28.26158695 -38.75 39 C-37.25370249 45.29299983 -33.56276342 50.71036304 -28.75 55 C-22.49222546 58.80374531 -15.53637299 59.06089711 -8.4765625 57.49609375 C-2.77978526 55.58625464 1.46965464 52.47976675 5 47.5625 C9.18452475 38.98422426 9.60219351 29.25895558 7.59765625 19.98046875 C5.2616697 13.45374238 1.24418999 8.0633163 -4.98828125 4.84375 C-14.41797243 1.96282596 -25.80672808 2.45896294 -32.75 10 Z " fill="#4D7EBA" transform="translate(328.75,61)"/>
<path d="M0 0 C2.64 0 5.28 0 8 0 C8.33 2.97 8.66 5.94 9 9 C9.99 8.071875 10.98 7.14375 12 6.1875 C19.39771951 -0.00900565 26.83833498 -0.76277281 36.203125 -0.41796875 C41.26535651 0.13929336 44.34577198 1.51098974 48 5 C48.7425 5.70125 49.485 6.4025 50.25 7.125 C57.32563428 18.74925631 56.47267038 30.52789071 56.25 43.6875 C56.22990479 45.75714418 56.21165937 47.82680719 56.1953125 49.89648438 C56.15155539 54.93146007 56.0826941 59.96551942 56 65 C53.69 65 51.38 65 49 65 C48.9906543 63.74977051 48.98130859 62.49954102 48.97167969 61.21142578 C48.9315377 56.53317808 48.86571323 51.85557136 48.79248047 47.17773438 C48.76441047 45.1605661 48.74312708 43.14329069 48.72900391 41.12597656 C48.70737972 38.21103614 48.66063182 35.29736509 48.609375 32.3828125 C48.60814636 31.49385284 48.60691772 30.60489319 48.60565186 29.68899536 C48.43307593 22.16114183 46.90673019 14.83752232 41.375 9.4375 C35.58470558 5.93284812 29.64389621 6.3589223 23 7 C17.31906448 9.00911134 13.68654172 12.62691656 11 18 C7.2994792 27.65377898 7.45194349 37.51013192 7.3125 47.6875 C7.27925889 49.37177021 7.24476319 51.05601616 7.20898438 52.74023438 C7.12486655 56.82668713 7.05769677 60.91309233 7 65 C4.69 65 2.38 65 0 65 C0 43.55 0 22.1 0 0 Z " fill="#4B7BB5" transform="translate(173,206)"/>
<path d="M0 0 C4.75476378 2.95851969 6.13825806 5.90470627 8 11 C5.69 11 3.38 11 1 11 C0.74734375 10.37609375 0.4946875 9.7521875 0.234375 9.109375 C-1.62948651 5.9242952 -3.72689488 5.55228106 -7.15625 4.5390625 C-13.48321221 3.33972076 -20.91529426 2.45764713 -26.796875 5.3984375 C-29.98647114 7.57859569 -29.98647114 7.57859569 -31.37109375 10.98828125 C-31.4896537 15.13787966 -31.43514666 17.3542985 -29.0625 20.875 C-23.20501968 24.9393741 -16.84499418 26.06525282 -9.9375 27.5 C5.27327292 30.69622922 5.27327292 30.69622922 9.15234375 35.9296875 C11.56422959 41.82046858 10.92921738 48.73755768 8.5625 54.5 C0.67099006 62.19903409 -7.75497776 63.37776433 -18.421875 63.27734375 C-25.97880558 62.69159913 -32.10983328 59.71310671 -37.66015625 54.59375 C-39.6054824 52.27977603 -40.37331248 49.92454176 -41 47 C-38.36 47 -35.72 47 -33 47 C-32.87625 47.928125 -32.87625 47.928125 -32.75 48.875 C-32.21083485 51.13782283 -32.21083485 51.13782283 -30.20703125 52.03125 C-22.10492547 55.58757254 -14.09832994 57.90461038 -5.3359375 55.16796875 C-0.88067349 53.48588341 -0.88067349 53.48588341 2 50 C2.2737932 47.66301325 2.2737932 47.66301325 2.3125 45.0625 C2.34988281 44.18722656 2.38726562 43.31195313 2.42578125 42.41015625 C2.22008462 39.89270206 2.22008462 39.89270206 0.29296875 38.30859375 C-4.21006836 35.73871737 -8.47955048 34.63007198 -13.5625 33.6875 C-22.49795918 31.81968868 -32.22270669 29.57024641 -38 22 C-39.79454126 16.61637622 -40.07655336 10.42438628 -37.625 5.1875 C-29.95204954 -5.93959655 -10.86676369 -5.85133429 0 0 Z " fill="#4C7DB8" transform="translate(358,209)"/>
<path d="M0 0 C0.7950293 0.00644531 1.59005859 0.01289062 2.40917969 0.01953125 C8.63532731 0.21369917 13.41743934 1.15615816 18.125 5.5 C24.125 11.96540881 24.125 11.96540881 24.125 16.5 C20.8125 16.8125 20.8125 16.8125 17.125 16.5 C16.07855934 14.86209288 15.0851817 13.18991979 14.125 11.5 C8.70655007 6.96530794 2.26907185 6.83325805 -4.52734375 7.05859375 C-10.31699332 7.82198978 -13.80026303 9.91439815 -17.4296875 14.4375 C-22.85980051 22.5366516 -22.72827869 32.0448141 -21.875 41.5 C-20.5097031 47.93992456 -17.88618715 52.24745155 -12.75390625 56.34375 C-6.69423049 60.07278124 -0.82358718 60.22099478 6.125 59.5 C10.93284875 58.13298646 13.49249105 56.49668077 16.1875 52.25 C17.1465625 50.88875 17.1465625 50.88875 18.125 49.5 C21.875 49.125 21.875 49.125 25.125 49.5 C24.70422387 54.26879618 22.61641245 57.37005142 19.125 60.5 C10.5305043 66.21434384 3.39215441 67.18857562 -6.875 66.5 C-14.90934961 64.73477941 -20.60094755 60.28911561 -25.48046875 53.890625 C-31.15371301 44.16506342 -31.19397574 33.45464584 -29.875 22.5 C-27.60658618 14.44006813 -22.98810517 7.98788182 -15.875 3.5 C-10.45958853 0.70302924 -6.06488916 -0.05115891 0 0 Z " fill="#4C7DB8" transform="translate(488.875,58.5)"/>
<path d="M0 0 C2.31 0 4.62 0 7 0 C7 26.73 7 53.46 7 81 C23.17 81 39.34 81 56 81 C56 82.98 56 84.96 56 87 C37.52 87 19.04 87 0 87 C0 58.29 0 29.58 0 0 Z " fill="#4F81BF" transform="translate(31,184)"/>
<path d="M0 0 C2.31 0 4.62 0 7 0 C7 6.27 7 12.54 7 19 C12.94 19 18.88 19 25 19 C25 20.98 25 22.96 25 25 C19.06 25 13.12 25 7 25 C7.06890464 31.31752737 7.1568863 37.63439467 7.26245117 43.95141602 C7.29567746 46.09977898 7.32371653 48.24822875 7.34643555 50.39672852 C7.38002331 53.48751776 7.43234221 56.57751312 7.48828125 59.66796875 C7.49467117 60.62648239 7.5010611 61.58499603 7.50764465 62.57255554 C7.61589291 67.49742433 7.74639313 71.02838342 11 75 C13.96217442 77.02871609 16.71234042 77.34571109 20.25 77.625 C21.14203125 77.69976562 22.0340625 77.77453125 22.953125 77.8515625 C23.96632813 77.92503906 23.96632813 77.92503906 25 78 C25 79.98 25 81.96 25 84 C10.83400919 84.84995945 10.83400919 84.84995945 5 80 C3.26100461 77.72358912 2.21869933 75.63239055 1 73 C0.67 72.34 0.34 71.68 0 71 C-0.08963847 69.51899189 -0.11757925 68.03400576 -0.11352539 66.55029297 C-0.11344986 65.62948944 -0.11337433 64.70868591 -0.11329651 63.75997925 C-0.10813522 62.76410797 -0.10297394 61.76823669 -0.09765625 60.7421875 C-0.0962413 59.72399933 -0.09482635 58.70581116 -0.09336853 57.6567688 C-0.087759 54.39614965 -0.07520488 51.13559849 -0.0625 47.875 C-0.05748623 45.66796974 -0.05292311 43.46093841 -0.04882812 41.25390625 C-0.03778647 35.83591119 -0.02051543 30.41796714 0 25 C-3.63 25 -7.26 25 -11 25 C-11 23.02 -11 21.04 -11 19 C-7.37 19 -3.74 19 0 19 C0 12.73 0 6.46 0 0 Z " fill="#4C7EB9" transform="translate(535,187)"/>
<path d="M0 0 C2.31 0 4.62 0 7 0 C7 6.27 7 12.54 7 19 C12.94 19 18.88 19 25 19 C25 20.98 25 22.96 25 25 C19.06 25 13.12 25 7 25 C7.06890464 31.31752737 7.1568863 37.63439467 7.26245117 43.95141602 C7.29567746 46.09977898 7.32371653 48.24822875 7.34643555 50.39672852 C7.38002331 53.48751776 7.43234221 56.57751312 7.48828125 59.66796875 C7.49467117 60.62648239 7.5010611 61.58499603 7.50764465 62.57255554 C7.61589291 67.49742433 7.74639313 71.02838342 11 75 C13.96217442 77.02871609 16.71234042 77.34571109 20.25 77.625 C21.14203125 77.69976562 22.0340625 77.77453125 22.953125 77.8515625 C23.96632813 77.92503906 23.96632813 77.92503906 25 78 C25 79.98 25 81.96 25 84 C10.83400919 84.84995945 10.83400919 84.84995945 5 80 C3.26100461 77.72358912 2.21869933 75.63239055 1 73 C0.67 72.34 0.34 71.68 0 71 C-0.08963847 69.51899189 -0.11757925 68.03400576 -0.11352539 66.55029297 C-0.11344986 65.62948944 -0.11337433 64.70868591 -0.11329651 63.75997925 C-0.10813522 62.76410797 -0.10297394 61.76823669 -0.09765625 60.7421875 C-0.0962413 59.72399933 -0.09482635 58.70581116 -0.09336853 57.6567688 C-0.087759 54.39614965 -0.07520488 51.13559849 -0.0625 47.875 C-0.05748623 45.66796974 -0.05292311 43.46093841 -0.04882812 41.25390625 C-0.03778647 35.83591119 -0.02051543 30.41796714 0 25 C-3.63 25 -7.26 25 -11 25 C-11 23.02 -11 21.04 -11 19 C-7.37 19 -3.74 19 0 19 C0 12.73 0 6.46 0 0 Z " fill="#4C7EB9" transform="translate(535,40)"/>
<path d="M0 0 C2.55488793 1.54515022 4.16556197 2.82064898 6.02734375 5.1171875 C6.506875 5.69339844 6.98640625 6.26960938 7.48046875 6.86328125 C11.19007905 12.05897037 11.01284159 14.79916809 11.77734375 21.6796875 C-2.74265625 21.6796875 -17.26265625 21.6796875 -32.22265625 21.6796875 C-31.10449556 12.73440201 -29.47573273 6.80805343 -22.28515625 1.1171875 C-15.64411201 -2.8941815 -7.08311441 -2.90193051 0 0 Z " fill="#000102" transform="translate(426.22265625,66.3203125)"/>
<path d="M0 0 C2.31 0 4.62 0 7 0 C7.33 3.3 7.66 6.6 8 10 C8.58007812 9.44570312 9.16015625 8.89140625 9.7578125 8.3203125 C17.49324676 1.14652693 22.5899396 -0.37031835 33 0 C33 1.98 33 3.96 33 6 C31.58847656 6.23783203 31.58847656 6.23783203 30.1484375 6.48046875 C20.42026721 8.11388191 20.42026721 8.11388191 13 14 C10.15024314 18.74340637 7.91831028 23.41366324 7.79467773 29.01245117 C7.77473251 29.81305466 7.75478729 30.61365814 7.73423767 31.43852234 C7.71752518 32.29798965 7.70081268 33.15745697 7.68359375 34.04296875 C7.66281265 34.9265657 7.64203156 35.81016266 7.62062073 36.72053528 C7.55524246 39.54277785 7.49629472 42.36511335 7.4375 45.1875 C7.39430363 47.10092106 7.35068898 49.01433273 7.30664062 50.92773438 C7.19957305 55.61839437 7.09827248 60.30914783 7 65 C4.69 65 2.38 65 0 65 C0 43.55 0 22.1 0 0 Z " fill="#4D7FBB" transform="translate(242,59)"/>
<path d="M0 0 C1.98 0 3.96 0 6 0 C6.09289208 9.64055476 6.16386203 19.28095423 6.20724869 28.92185974 C6.2280776 33.39907702 6.25630874 37.87598693 6.30175781 42.35302734 C6.34538405 46.67782592 6.36917239 51.00232981 6.37950897 55.32733154 C6.38687036 56.97308996 6.40124534 58.61883319 6.42292023 60.26446533 C6.62578513 76.31242424 6.62578513 76.31242424 2 83 C-1.92346004 86.92346004 -5.03137579 87.22485353 -10.375 87.25 C-12.25076302 87.1861054 -14.12632538 87.10914609 -16 87 C-16 85.02 -16 83.04 -16 81 C-15.09507812 80.94392578 -15.09507812 80.94392578 -14.171875 80.88671875 C-10.70826465 80.60180887 -7.7368502 80.34008471 -4.5625 78.875 C-0.82892172 74.39470607 -0.74187141 68.37581469 -0.68115234 62.77954102 C-0.67110672 62.09576889 -0.6610611 61.41199677 -0.65071106 60.70750427 C-0.62010091 58.47297927 -0.60290656 56.23857281 -0.5859375 54.00390625 C-0.56720793 52.44448339 -0.54763321 50.88507048 -0.5272522 49.32566833 C-0.47611372 45.24050787 -0.4363907 41.15531461 -0.39910889 37.07000732 C-0.35895401 32.89359548 -0.30791429 28.71731789 -0.2578125 24.54101562 C-0.16126997 16.36076909 -0.07679652 8.18045563 0 0 Z " fill="#4F81BE" transform="translate(364,60)"/>
<path d="M0 0 C0.66 0 1.32 0 2 0 C2.33 18.81 2.66 37.62 3 57 C1.68 56.67 0.36 56.34 -1 56 C-1.02526563 48.18547248 -1.04283105 40.37095542 -1.05493164 32.55639648 C-1.05997383 29.89558519 -1.06680736 27.23477668 -1.07543945 24.57397461 C-1.08751009 20.75894484 -1.09322929 16.94395156 -1.09765625 13.12890625 C-1.10281754 11.93100967 -1.10797882 10.7331131 -1.11329651 9.49891663 C-1.11337204 8.3978508 -1.11344757 7.29678497 -1.11352539 6.16235352 C-1.115746 5.18750504 -1.11796661 4.21265656 -1.12025452 3.20826721 C-1 1 -1 1 0 0 Z " fill="#5283B8" transform="translate(812,240)"/>
<path d="M0 0 C3 0.25 3 0.25 5 2.25 C5.3125 5.75 5.3125 5.75 5 9.25 C1.77626323 11.39915785 0.73296326 11.63286803 -3 11.25 C-5 9.25 -5 9.25 -5.25 5.75 C-4.93427155 1.32980166 -4.46370491 0.37197541 0 0 Z " fill="#4C7CB7" transform="translate(367,36.75)"/>
<path d="M0 0 C0.33 5.61 0.66 11.22 1 17 C-0.32 16.67 -1.64 16.34 -3 16 C-3 11.05 -3 6.1 -3 1 C-1 0 -1 0 0 0 Z " fill="#4E7BAF" transform="translate(814,280)"/>
<path d="M0 0 C0.66 0.33 1.32 0.66 2 1 C-1.63 4.63 -5.26 8.26 -9 12 C-9 8.00102358 -7.64683965 6.93298448 -5 4 C-3.36643049 2.62631655 -1.7074998 1.28062485 0 0 Z " fill="#0E171E" transform="translate(712,108)"/>
</svg>
